<svg id="レイヤー_1" data-name="レイヤー 1" xmlns="http://www.w3.org/2000/svg" viewBox="0 0 176.79 147.2"><defs><style>.cls-1{fill:#9e9e9f;}.cls-2{fill:#231815;}.cls-3{fill:#fff;}.cls-4{fill:#fbd375;}</style></defs><path class="cls-1" d="M158.25,117.88c11.6,12.49,6.77,16.65-3.54,21.2-9.87,4.35-20.5,6.82-30.53,10.77S104.55,158.41,94,161c-12.73,3.12-24.66,2.81-34.89-4.9a6.18,6.18,0,0,1,.83.27,133,133,0,0,1-15.41-11.91,171.88,171.88,0,0,1-14.95-16.08c-2.47-2.91-9-7.86-8.73-12.28.34-5.14,7.63-10.68,10.73-14.68,4.23-5.46,7.3-11.57,11.6-17,4.92-6.23,8.44-13.7,11.71-20.8,3.37-7.34,6.3-14.86,9.44-22.29,1.57-3.73,3.18-7.45,4.92-11.11,1-2.05,3.44-5.91,3.11-7.94,2.29,14.42,4.1,27.32,6,41.75.76,6.49.38,18,3.81,23.44,3.43,5.78,15.63,6.86,22.11,6.5S118,72.66,120.67,64.36c6.14-17.88,9.65-27.84,13.44-38.87,3.43,6.5,3.33,11.09,3.72,18.31.38,10.82.76,22,1.14,32.82,0,8.3.38,17,4.58,24.17C143.16,100.43,153.06,112.29,158.25,117.88Z" transform="translate(-1.98 -15.65)"/><path class="cls-2" d="M153.89,114.91c3.41,3.7,9.62,10.49,4.58,15.32a25,25,0,0,1-7.24,4.3,134.76,134.76,0,0,1-13.35,5c-4.68,1.53-9.4,3-14,4.63s-9,3.55-13.52,5.41c-8.75,3.62-17.67,7.1-27.11,8.42-9.7,1.35-19.37-.17-27.35-6.11l-.77,1.48a8.09,8.09,0,0,1,.83.28.85.85,0,0,0,.78-1.49,141.75,141.75,0,0,1-14.38-11,143.46,143.46,0,0,1-13.1-13.68c-1.58-1.83-3.11-3.68-4.83-5.38a45,45,0,0,1-4.59-5c-1.29-1.73-2.25-3.66-1.59-5.84A16.84,16.84,0,0,1,22,105.44c1.61-1.82,3.37-3.5,5-5.29a50.1,50.1,0,0,0,4.69-6.24c1.68-2.54,3.26-5.15,4.94-7.69s3.68-5,5.45-7.53a104.81,104.81,0,0,0,8.55-15.55c2.69-5.75,5.15-11.59,7.57-17.46,1.41-3.44,2.83-6.87,4.29-10.29a96.39,96.39,0,0,1,4-8.84c1-1.85,2.3-3.57,3.36-5.41.81-1.4,1.94-3.12,1.76-4.81L70,16.62c1.16,7.45,1.64,15,2.07,22.49s1,14.71,1.8,22.06c.56,5.32.49,10.7,1.43,16,.8,4.53,2.36,8.66,6.6,10.94s9.4,3,14.19,3.19a17.55,17.55,0,0,0,5.51-.2,8.33,8.33,0,0,0,3.66-2.66c2.9-3.26,4.83-7.44,6.58-11.39,1.88-4.25,3.49-8.61,5-13,5.16-15.34,9.8-30.86,15-46.17l-1.56.07c2.27,4.4,2.63,9.49,2.77,14.35.15,5.21.29,10.42.48,15.62q.28,8.61.59,17.21c.19,5.37.14,10.78.52,16.14.4,5.7,1.56,11.39,4.41,16.4l1.25-1.06h0a.84.84,0,0,0-.84-.07h0a.88.88,0,0,0-.4,1.13,15.19,15.19,0,0,0,1.63,2q1.92,2.3,3.86,4.58c3.06,3.6,6.14,7.2,9.35,10.66.74.8,2-.29,1.29-1.09-3.14-3.39-6.15-6.91-9.15-10.43l-3.8-4.5L141,97.43c-.11-.13-.65-.89-.45-.52l-.4,1.12h0l-.85-.07h0c.64.54,1.66-.34,1.25-1.06A35.93,35.93,0,0,1,136.4,82c-.48-5.48-.38-11-.57-16.53-.39-11-.78-21.91-1.08-32.86-.14-5.24-.49-10.7-2.93-15.45a.86.86,0,0,0-1.56.07c-4.81,14-9,28.3-13.78,42.35C113.65,67.91,111,76.52,106.35,84a18.56,18.56,0,0,1-3.38,4.3,5,5,0,0,1-3.59,1.3,40.23,40.23,0,0,1-14-1.85,12.64,12.64,0,0,1-5.51-3.29,13.35,13.35,0,0,1-2.63-6C76.13,73.41,76.09,68.13,75.7,63c-.25-3.41-.75-6.8-1-10.2-.34-4-.58-8-.81-12-.47-8.16-.92-16.33-2.19-24.41-.17-1.09-1.78-.78-1.66.29a3.82,3.82,0,0,1-.55,1.78,25.71,25.71,0,0,1-1.56,2.81c-.93,1.52-2,3-2.83,4.54-1.44,2.6-2.55,5.43-3.73,8.16-1.28,3-2.52,6-3.76,8.94-2.5,6.07-5,12.15-7.75,18.11A112.9,112.9,0,0,1,41.1,77.18c-1.74,2.55-3.72,4.93-5.44,7.5s-3.36,5.26-5.08,7.87a49.23,49.23,0,0,1-5,6.67c-1.65,1.76-3.38,3.44-5,5.25-2.68,3-5.56,7-3.71,11.17,1.75,4,5.51,6.58,8.28,9.77A194.54,194.54,0,0,0,39.8,141.17a138.2,138.2,0,0,0,15.92,12.38l.78-1.49a6.32,6.32,0,0,0-.84-.27.85.85,0,0,0-.78,1.48c7.2,5.36,15.84,7.39,24.72,6.8,9.88-.66,19.36-4,28.46-7.74,4.7-1.91,9.34-3.94,14.08-5.74,5-1.89,10.07-3.45,15.13-5.09a142.65,142.65,0,0,0,14.39-5.31,27.49,27.49,0,0,0,7.82-4.6c6-5.65-.06-13.17-4.3-17.77C154.44,113,153.15,114.11,153.89,114.91Z" transform="translate(-1.98 -15.65)"/><path class="cls-3" d="M55.76,88.53c3.33,0,6.09,2.2,8.33,4.44,2,2,6.52,6.3,6.75,9.16.52,6.72-13.49,11.41-18.87,9.89-4.84-1.37-9.82-8.43-9.88-13.22C42,94.19,51.34,88.53,55.76,88.53Z" transform="translate(-1.98 -15.65)"/><path class="cls-2" d="M55.68,89.37c3.43.09,6,2.36,8.28,4.66a32.56,32.56,0,0,1,5.16,6,4.43,4.43,0,0,1-.25,5.44,13.65,13.65,0,0,1-5.09,3.72,24.59,24.59,0,0,1-6.8,2.09,10.46,10.46,0,0,1-5.55-.32,14.44,14.44,0,0,1-6.24-5.8c-1.24-1.94-2.82-4.93-2.11-7.31s3.29-4.35,5.32-5.65,4.73-2.75,7.28-2.8c1.08,0,1.25-1.71.16-1.69a15.66,15.66,0,0,0-7.35,2.47,17.09,17.09,0,0,0-6.35,5.7c-1.38,2.37-.88,4.94.14,7.37a19.12,19.12,0,0,0,6,7.83c4.32,3.25,9.9,2.16,14.61.32,3.78-1.48,9.73-4.89,8.68-9.85-.68-3.23-3.73-6-6-8.2-2.73-2.72-5.72-5.53-9.8-5.64C54.76,87.66,54.59,89.34,55.68,89.37Z" transform="translate(-1.98 -15.65)"/><path class="cls-3" d="M113.21,96.1c-3.33,0-6.09,2.2-8.33,4.45-2,2-6.52,6.3-6.75,9.15-.52,6.73,13.49,11.41,18.87,9.89,4.84-1.37,9.82-8.42,9.88-13.21C126.94,101.76,117.63,96.1,113.21,96.1Z" transform="translate(-1.98 -15.65)"/><path class="cls-2" d="M113.29,95.26c-3.72.1-6.58,2.28-9.12,4.8-2.17,2.16-4.52,4.36-6,7.06-2.66,4.84,1.69,8.8,5.74,10.86s10.13,4,14.58,2a16.72,16.72,0,0,0,7-6.69c1.35-2.24,2.83-5.39,2.14-8.08-.74-2.91-3.49-5.14-5.88-6.71s-5.43-3.14-8.4-3.2c-1.09,0-1.25,1.66-.16,1.68a14.13,14.13,0,0,1,6.5,2.24,16.46,16.46,0,0,1,5.52,4.73c1.43,2.14.78,4.49-.22,6.7a17.47,17.47,0,0,1-5.44,6.78c-3.69,2.68-8.54,1.6-12.51.1-3-1.13-9-4-7.92-8.2.67-2.7,3.38-5.11,5.26-7,2.43-2.44,5.13-5.25,8.81-5.35C114.21,96.92,114.37,95.23,113.29,95.26Z" transform="translate(-1.98 -15.65)"/><path class="cls-4" d="M54.27,90c-.66,4.08-1.54,8.74.14,12.68a1.51,1.51,0,0,0,2.75-.12c1-2.87.11-5.88.09-8.76a1.54,1.54,0,0,0-1.35-1.63,1.51,1.51,0,0,0-1.63,1.35c0,1.47.2,2.92.32,4.39a9.33,9.33,0,0,1-.23,3.62l2.75-.13a12.1,12.1,0,0,1-.6-5.25,55.38,55.38,0,0,1,.74-5.87,1.5,1.5,0,0,0-3-.28Z" transform="translate(-1.98 -15.65)"/><path class="cls-4" d="M111.74,98a55.38,55.38,0,0,1,.74,5.87,12.1,12.1,0,0,1-.67,5.26l2.75-.12a9.76,9.76,0,0,1-.17-3.52c.11-1.36.29-2.72.3-4.09a1.52,1.52,0,0,0-1.34-1.62,1.51,1.51,0,0,0-1.63,1.34c0,3.09-.87,6.15.14,9.17a1.48,1.48,0,0,0,1.41.84,1.54,1.54,0,0,0,1.34-1,14.69,14.69,0,0,0,.83-6.44,56.83,56.83,0,0,0-.76-6.24,1.49,1.49,0,0,0-2.94.51Z" transform="translate(-1.98 -15.65)"/><path class="cls-2" d="M73.78,132.08a3.84,3.84,0,0,1-1.15-3.78c2,0,7.72-.28,8.29,2.16.58,2.71-5.14,3-6.86,2.71" transform="translate(-1.98 -15.65)"/><path class="cls-2" d="M74.42,131.54a3.27,3.27,0,0,1-1-3.16l-.92.76c1.11,0,2.21,0,3.32,0a8.62,8.62,0,0,1,3.52.72c-.16-.08,0,0,.07,0l.15.1.15.1s.16.15.07.06.06.07.06.07a1.47,1.47,0,0,1,.1.13c.08.09-.08-.18,0,0a.89.89,0,0,0,.08.17c.09.19,0-.17,0,0l0,.17c0,.13,0-.2,0,0s0,.11,0,.16-.06.18,0,0a.58.58,0,0,0-.05.14s-.1.16,0,0l-.1.15s-.17.19,0,0a.57.57,0,0,1-.11.11l-.26.21c-.11.08.17-.1,0,0l-.15.08a3.89,3.89,0,0,1-.42.19,6.9,6.9,0,0,1-1.54.39c-.33.06-.65.09-1,.12l-.5,0c-.27,0,.17,0-.09,0h-.24a8.39,8.39,0,0,1-1.5-.08c-1.08-.16-1.23,1.52-.16,1.69a12.42,12.42,0,0,0,3.55-.07,6.09,6.09,0,0,0,3.57-1.44A2.45,2.45,0,0,0,81,129a6.78,6.78,0,0,0-3.89-1.38,39.69,39.69,0,0,0-4.36-.13.88.88,0,0,0-.92.77,4.78,4.78,0,0,0,1.34,4.41.87.87,0,0,0,1.19.1.84.84,0,0,0,.1-1.19Z" transform="translate(-1.98 -15.65)"/><path class="cls-2" d="M61.56,141c5.29-2.14,10.07-5.28,15.15-7.84l-1.13-.4c3.07,4.95,5.91,10.19,10.58,13.85.86.68,1.82-.71,1-1.38-4.42-3.47-7.11-8.5-10-13.2a.86.86,0,0,0-1.13-.4c-5.08,2.57-9.86,5.7-15.15,7.84-1,.41-.28,1.94.73,1.53Z" transform="translate(-1.98 -15.65)"/><path class="cls-2" d="M55.68,89.37c3.43.09,6,2.36,8.28,4.66a32.56,32.56,0,0,1,5.16,6,4.43,4.43,0,0,1-.25,5.44,13.65,13.65,0,0,1-5.09,3.72,24.59,24.59,0,0,1-6.8,2.09,10.46,10.46,0,0,1-5.55-.32,14.44,14.44,0,0,1-6.24-5.8c-1.24-1.94-2.82-4.93-2.11-7.31s3.29-4.35,5.32-5.65,4.73-2.75,7.28-2.8c1.08,0,1.25-1.71.16-1.69a15.66,15.66,0,0,0-7.35,2.47,17.09,17.09,0,0,0-6.35,5.7c-1.38,2.37-.88,4.94.14,7.37a19.12,19.12,0,0,0,6,7.83c4.32,3.25,9.9,2.16,14.61.32,3.78-1.48,9.73-4.89,8.68-9.85-.68-3.23-3.73-6-6-8.2-2.73-2.72-5.72-5.53-9.8-5.64C54.76,87.66,54.59,89.34,55.68,89.37Z" transform="translate(-1.98 -15.65)"/><path class="cls-2" d="M113.29,95.26c-3.72.1-6.58,2.28-9.12,4.8-2.17,2.16-4.52,4.36-6,7.06-2.66,4.84,1.69,8.8,5.74,10.86s10.13,4,14.58,2a16.72,16.72,0,0,0,7-6.69c1.35-2.24,2.83-5.39,2.14-8.08-.74-2.91-3.49-5.14-5.88-6.71s-5.43-3.14-8.4-3.2c-1.09,0-1.25,1.66-.16,1.68a14.13,14.13,0,0,1,6.5,2.24,16.46,16.46,0,0,1,5.52,4.73c1.43,2.14.78,4.49-.22,6.7a17.47,17.47,0,0,1-5.44,6.78c-3.69,2.68-8.54,1.6-12.51.1-3-1.13-9-4-7.92-8.2.67-2.7,3.38-5.11,5.26-7,2.43-2.44,5.13-5.25,8.81-5.35C114.21,96.92,114.37,95.23,113.29,95.26Z" transform="translate(-1.98 -15.65)"/><path class="cls-2" d="M140.36,123.36c12.44-1.8,25-.37,37.52,0,1.08,0,1.24-1.66.16-1.69-12.64-.37-25.38-1.81-38,0-1.08.16-.78,1.82.3,1.67Z" transform="translate(-1.98 -15.65)"/><path class="cls-2" d="M134.2,134.14c9.77,4.66,18.52,11.11,26.88,17.93.84.69,1.81-.7,1-1.38-8.48-6.92-17.35-13.42-27.27-18.14-1-.47-1.56,1.12-.58,1.59Z" transform="translate(-1.98 -15.65)"/><path class="cls-2" d="M32.11,112c-8.59-5.74-19-8-28.82-10.58-1.2-.32-1.88,1.51-.67,1.83C12.28,105.79,22.56,108,31,113.58c1,.7,2.16-.9,1.12-1.59Z" transform="translate(-1.98 -15.65)"/><path class="cls-2" d="M32,123.36c-8.51-1.46-17.41.94-25.29,4.06-1.16.46-.32,2.21.84,1.75,7.57-3,16.09-5.28,24.27-3.87,1.23.21,1.41-1.73.18-1.94Z" transform="translate(-1.98 -15.65)"/></svg>