<?xml version="1.0" encoding="utf-8"?>
<!-- Generator: Adobe Illustrator 26.5.0, SVG Export Plug-In . SVG Version: 6.00 Build 0)  -->
<svg version="1.1" id="mikuro" xmlns="http://www.w3.org/2000/svg" xmlns:xlink="http://www.w3.org/1999/xlink" x="0px" y="0px"
	 viewBox="0 0 240.9 212.2" style="enable-background:new 0 0 240.9 212.2;" xml:space="preserve">
<style type="text/css">
	.st0{fill:#9FA0A0;}
	.st1{fill:none;}
	.st2{fill:#231815;}
	.st3{fill:#FFFFFF;}
	.st4{fill:#FCD475;}
</style>
<path class="st0" d="M213.2,147.3c15.9,18,9.2,24-4.8,30.6c-13.5,6.3-28,9.9-41.7,15.6s-26.8,12.4-41.3,16.1
	c-17.4,4.5-33.7,4.1-47.7-7.1c0.4,0.1,0.8,0.2,1.1,0.4c-7.4-5.2-14.5-10.9-21.1-17.2c-7.4-7.2-14-15.2-20.4-23.2
	c-3.4-4.2-12.3-11.4-11.9-17.7c0.5-7.4,10.4-15.4,14.7-21.2c5.8-7.9,10-16.7,15.9-24.6c6.7-9,11.5-19.8,16-30
	c4.6-10.6,8.6-21.4,12.9-32.2c2.1-5.4,4.4-10.8,6.7-16c1.3-3,4.7-8.5,4.2-11.5c3.1,20.8,5.6,39.5,8.2,60.3c1,9.4,0.5,26,5.2,33.9
	c4.7,8.3,21.4,9.9,30.2,9.4s18.8-30.7,22.4-42.7c8.4-25.8,13.2-40.2,18.4-56.1c4.7,9.4,4.6,16,5.1,26.4c0.5,15.6,1,31.8,1.6,47.4
	c0,12,0.5,24.5,6.2,34.9C192.5,122.1,206.1,139.2,213.2,147.3z"/>
<path class="st1" d="M208.1,142.2c15.9,18,9.2,24.1-4.8,30.6c-13.5,6.3-28,9.9-41.7,15.5s-26.8,12.4-41.3,16.1
	c-17.4,4.5-33.7,4.1-47.7-7.1c0.4,0.1,0.8,0.2,1.1,0.4c-7.4-5.2-14.5-11-21.1-17.2c-7.4-7.2-14-15.2-20.4-23.2
	c-3.4-4.2-12.3-11.4-11.9-17.7c0.5-7.4,10.4-15.4,14.7-21.2c5.8-7.9,10-16.7,15.9-24.6c6.7-9,11.5-19.8,16-30.1
	c4.6-10.6,8.6-21.4,12.9-32.2c2.1-5.4,4.4-10.8,6.7-16c1.3-3,7.7-11.8,7.2-14.7c3.1,20.8,2.6,42.7,5.2,63.6c1,9.4,0.5,26,5.2,33.9
	c4.7,8.3,21.4,9.9,30.2,9.4s18.8-30.7,22.4-42.7c6.8-20.8,12.5-41.7,19.3-62.5c4.7,9.4,3.6,22.4,4.2,32.8c0.5,15.6,1,31.8,1.6,47.4
	c0,12,0.5,24.5,6.2,34.9C187.5,117,201,134.1,208.1,142.2z"/>
<path class="st2" d="M207.4,142.7c4,4.6,9.2,10.5,9,17c-0.2,5-5.5,8.1-9.2,10.1c-13.3,7.3-28.5,10.9-42.6,16.3
	c-28.5,10.9-62.8,32.6-91.5,10.5l-0.8,1.5l1.1,0.4c0.4,0.2,0.9-0.1,1.1-0.5c0.1-0.4,0-0.7-0.3-1c-8.8-6.2-17.1-13.3-24.8-20.9
	c-6.9-7.1-12.6-15.4-19.5-22.5c-3-3.1-6-6.2-7.9-10c-2.5-4.9,1-9.8,4-13.6c2.5-3.3,5.5-6.2,8.2-9.3c3.7-4.2,6.5-9.3,9.3-14.1
	c5.2-8.6,11.5-16.5,16.1-25.5c5.2-10.1,9.6-20.7,13.8-31.3c4.3-10.8,8.3-21.6,13-32.2c2.2-5.1,8.2-11,8.1-16.7L92.9,1
	c2,13.7,2.5,27.4,3.3,41.2c0.7,11.9,2,23.6,2.8,35.5c0.5,8,0.8,18.5,7.2,24.3c6,5.5,16.1,6.4,23.9,6.6c6.4,0.2,9.3-2,12.8-7.3
	c4.9-7.4,8-16.1,10.9-24.4c8.6-24.4,15.1-49.6,23.1-74.2l-1.6,0.1c4,8.7,3.8,18.4,3.9,27.8c0.2,10.4,0.7,20.8,1,31.2
	c0.3,9.9,0.4,19.8,0.9,29.7c0.5,9.2,1.9,18.2,6.2,26.5l0.9-1.2l0,0c-0.5,0-0.9,0.3-0.9,0.8c0,0.2,0.1,0.4,0.2,0.6
	C193.4,126.7,200.6,134.8,207.4,142.7c0.8,0.8,2-0.3,1.3-1.1c-6.9-7.9-14.1-16-20.1-24.7l-0.7,1.4l0,0c0.5,0,0.9-0.3,0.9-0.8
	c0-0.1,0-0.3-0.1-0.4c-4.8-9.1-5.9-19.1-6.1-29.3c-0.3-10.6-0.6-21.2-0.9-31.7c-0.3-10.1-0.7-20.2-0.9-30.3
	c-0.1-8.1-0.5-16.4-4-23.8c-0.2-0.4-0.7-0.6-1.2-0.4c-0.2,0.1-0.3,0.2-0.4,0.4c-7.3,22.5-13.7,45.3-20.9,67.8
	c-2.4,7.7-5.3,15.3-8.6,22.6c-3,6.4-6.4,14.3-14.4,14.4c-8.4,0.1-19.3-1-25.4-7.5s-5.2-19.6-5.6-27.7c-0.6-11.2-2-22.4-2.6-33.6
	c-0.7-12.5-1.3-25-3.1-37.4c-0.1-0.9-1.7-0.9-1.7,0.1c0.1,3.3-2.7,6.8-4.3,9.5c-2,3.3-3.7,6.8-5.2,10.3c-4.8,11.2-9,22.7-13.6,34
	c-4.4,10.8-9,21.7-14.9,31.7c-3,5.1-6.7,9.7-9.8,14.7c-3.2,5.2-6.2,10.5-9.7,15.5c-4.6,6.8-11.6,11.8-15,19.5
	c-3.1,7,3.1,13.2,7.5,17.9c7.1,7.5,13.2,15.9,20.4,23.4c7.6,8,16.2,14.8,25.1,21.2l0.8-1.5l-1.1-0.4c-0.4-0.1-0.9,0.1-1.1,0.6
	c-0.1,0.3,0,0.7,0.3,0.9c30.3,23.3,66.8-0.5,96.7-11.6c9.3-3.5,18.8-6.3,28-9.9c5.9-2.3,12.3-4.9,17.2-9.1c9.2-7.7,0.6-19-5.2-25.8
	C208,140.8,206.7,141.9,207.4,142.7z"/>
<path class="st3" d="M73.1,104.9c4.5,0,8.3,3.2,11.4,6.4c2.7,2.9,8.9,9.1,9.2,13.2c0.7,9.7-18.4,16.5-25.8,14.3
	c-6.6-2-13.4-12.2-13.5-19.1C54.4,113.1,67.1,104.9,73.1,104.9z"/>
<path class="st1" d="M73.1,104.9c4.5,0,8.3,3.2,11.4,6.4c2.7,2.9,8.9,9.1,9.2,13.2c0.7,9.7-18.4,16.5-25.8,14.3
	c-6.6-2-13.4-12.2-13.5-19.1C54.4,113.1,67.1,104.9,73.1,104.9z"/>
<path class="st2" d="M73,105.7c5.7,0.4,9.3,4.5,13,8.4c2.8,3,6.8,6.9,6.9,11.2c0.1,7.8-12.2,11.7-18.1,12.8
	c-10,1.8-17.2-7.2-19.3-16.2c-1.9-8.2,10.8-15.8,17.8-16.1c1.1-0.1,0.8-1.7-0.3-1.7c-7.9,0.4-19.9,8.1-19.3,16.9
	c0.6,9.6,9.6,19.6,19.4,19c7.9-0.5,19.4-5.1,21.4-13.6c1.1-4.6-3.6-9.4-6.4-12.4c-4.1-4.6-8.5-9.4-14.9-9.9c-0.5,0-0.9,0.3-0.9,0.8
	S72.6,105.7,73,105.7L73,105.7z"/>
<path class="st3" d="M151.6,115.8c-4.5,0-8.3,3.2-11.4,6.4c-2.7,2.9-8.9,9.1-9.2,13.2c-0.7,9.7,18.4,16.5,25.8,14.3
	c6.6-2,13.4-12.2,13.5-19.1C170.4,124,157.7,115.8,151.6,115.8z"/>
<path class="st1" d="M151.6,115.8c-4.5,0-8.3,3.2-11.4,6.4c-2.7,2.9-8.9,9.1-9.2,13.2c-0.7,9.7,18.4,16.5,25.8,14.3
	c6.6-2,13.4-12.2,13.5-19.1C170.4,124,157.7,115.8,151.6,115.8z"/>
<path class="st2" d="M151.5,115c-6.4,0.5-10.6,5.3-14.7,9.8c-2.7,2.9-7,7.3-6.6,11.7c1,9.1,12.9,13.3,20.6,14.4
	c10,1.4,18.8-8.4,20.2-17.8s-10.8-17.6-19.2-18c-1.1-0.1-1.2,1.6-0.2,1.7c6.9,0.4,18.3,7.3,17.9,15c-0.6,9.2-9.2,18.4-18.5,17.4
	c-6.8-0.7-17.3-4.6-19-12.1c-1-4.3,4.1-9.1,6.7-11.9c3.6-4,7.4-8,13.1-8.5C152.8,116.6,152.5,114.9,151.5,115z"/>
<path class="st1" d="M73.1,107.2c-0.8,5.1-2,12.5,0,17.2c1.2-3.5,0-8.2,0-12.1"/>
<path class="st4" d="M71.6,107.1c-0.9,5.9-2,12.2,0.1,18c0.4,0.7,1.3,1.1,2,0.7c0.3-0.2,0.6-0.5,0.7-0.8c1.1-4.2,0.2-8.3,0.1-12.5
	c0-1.9-3-2.2-3-0.3c0.1,3.9,1.1,7.9,0.1,11.7l2.8-0.1c-1.9-5.2-0.7-11.1,0.1-16.4C74.8,105.5,71.9,105.2,71.6,107.1L71.6,107.1z"/>
<path class="st1" d="M151.6,118.2c0.8,5.1,2,12.5,0,17.2c-1.2-3.5,0-8.2,0-12.1"/>
<path class="st4" d="M150.1,118.4c0.8,5.3,2,11.2,0.1,16.4l2.9,0.3c-1-3.8-0.1-7.8,0-11.7c0-1.9-2.9-2.2-3-0.3
	c-0.1,4.2-1.1,8.4,0,12.5c0.2,0.8,1,1.3,1.8,1.2c0.5-0.1,0.9-0.4,1.1-0.9c2.1-5.7,1-12.1,0.1-18C152.7,116,149.8,116.5,150.1,118.4
	L150.1,118.4z"/>
<path class="st2" d="M97.7,167.8c-1.4-1.4-2-3.5-1.6-5.5c2.7,0,10.5-0.4,11.3,3.1c0.8,3.9-7,4.3-9.4,3.9"/>
<path class="st1" d="M97.7,167.8c-1.4-1.4-2-3.5-1.6-5.5c2.7,0,10.5-0.4,11.3,3.1c0.8,3.9-7,4.3-9.4,3.9"/>
<path class="st2" d="M98.4,167.2c-1.2-1.3-1.7-3.1-1.4-4.8l-0.9,0.8c3,0,8.1-0.6,10.3,1.9c2.7,3.1-6.8,3.7-8.2,3.5
	c-1.1-0.2-1.2,1.5-0.2,1.7c2.9,0.4,10.9,0.1,10.3-4.5c-0.6-4.9-8.7-4.2-12.1-4.2c-0.5,0-0.9,0.3-0.9,0.8c-0.4,2.2,0.2,4.5,1.8,6.1
	C97.8,169.1,99.1,168,98.4,167.2L98.4,167.2z"/>
<path class="st1" d="M80.5,179.5c7.4-3.1,14.1-7.8,20.7-11.3c3.9,6.6,7.8,14.5,14.1,19.5"/>
<path class="st2" d="M80.9,180.3c3.6-1.6,7.2-3.5,10.6-5.5c2.5-1.4,8.6-6.9,10.4-3.7c3.6,6.3,7.3,12.5,12.9,17.3
	c0.8,0.7,1.8-0.7,1-1.4c-6.1-5.2-9.8-12.4-13.8-19.2c-0.2-0.4-0.7-0.6-1.1-0.4c-6.9,3.8-13.5,8.1-20.7,11.3
	C79.2,179.2,79.9,180.7,80.9,180.3L80.9,180.3z"/>
<path class="st1" d="M73.1,104.9c4.5,0,8.3,3.2,11.4,6.4c2.7,2.9,8.9,9.1,9.2,13.2c0.7,9.7-18.4,16.5-25.8,14.3
	c-6.6-2-13.4-12.2-13.5-19.1C54.4,113.1,67.1,104.9,73.1,104.9z"/>
<path class="st2" d="M73,105.7c5.7,0.4,9.3,4.5,13,8.4c2.8,3,6.8,6.9,6.9,11.2c0.1,7.8-12.2,11.7-18.1,12.8
	c-10,1.8-17.2-7.2-19.3-16.2c-1.9-8.2,10.8-15.8,17.8-16.1c1.1-0.1,0.8-1.7-0.3-1.7c-7.9,0.4-19.9,8.1-19.3,16.9
	c0.6,9.6,9.6,19.6,19.4,19c7.9-0.5,19.4-5.1,21.4-13.6c1.1-4.6-3.6-9.4-6.4-12.4c-4.1-4.6-8.5-9.4-14.9-9.9c-0.5,0-0.9,0.3-0.9,0.8
	S72.6,105.7,73,105.7L73,105.7z"/>
<path class="st1" d="M151.6,115.8c-4.5,0-8.3,3.2-11.4,6.4c-2.7,2.9-8.9,9.1-9.2,13.2c-0.7,9.7,18.4,16.5,25.8,14.3
	c6.6-2,13.4-12.2,13.5-19.1C170.4,124,157.7,115.8,151.6,115.8z"/>
<path class="st2" d="M151.5,115c-6.4,0.5-10.6,5.3-14.7,9.8c-2.7,2.9-7,7.3-6.6,11.7c1,9.1,12.9,13.3,20.6,14.4
	c10,1.4,18.8-8.4,20.2-17.8s-10.8-17.6-19.2-18c-1.1-0.1-1.2,1.6-0.2,1.7c6.9,0.4,18.3,7.3,17.9,15c-0.6,9.2-9.2,18.4-18.5,17.4
	c-6.8-0.7-17.3-4.6-19-12.1c-1-4.3,4.1-9.1,6.7-11.9c3.6-4,7.4-8,13.1-8.5C152.8,116.6,152.5,114.9,151.5,115z"/>
<path class="st1" d="M188.5,154c16.7-2.6,34.4-0.5,51.6,0"/>
<path class="st2" d="M188.6,154.8c17-2.5,34.2-0.6,51.4,0c1.1,0,1.2-1.6,0.2-1.7c-17.3-0.6-34.6-2.5-51.8,0c-0.5,0.1-0.7,0.6-0.6,1
	C187.8,154.6,188.2,154.8,188.6,154.8L188.6,154.8z"/>
<path class="st1" d="M180.7,169.6c13.5,6.8,25.5,16.2,37,26.1"/>
<path class="st2" d="M180.4,170.4c13.5,6.9,25.4,16.1,36.8,25.9c0.8,0.7,1.8-0.7,1-1.4c-11.6-9.9-23.6-19.2-37.2-26.1
	C180,168.3,179.4,169.9,180.4,170.4z"/>
<path class="st1" d="M40,139.9c-10.9-7.8-26-11.5-39.1-15.1"/>
<path class="st2" d="M40.6,139.1c-11.7-8.1-25.8-11.4-39.3-15.2c-1.2-0.3-1.9,1.5-0.7,1.8c13.4,3.7,27.3,7,38.9,15
	c0.5,0.2,1.1,0,1.3-0.6C40.9,139.8,40.9,139.4,40.6,139.1L40.6,139.1z"/>
<path class="st1" d="M40.6,156.6c-10.9-2.1-24,1.6-33.9,5.7"/>
<path class="st2" d="M40.6,155.6c-11.7-1.9-23.6,1.4-34.4,5.8c-1.2,0.5-0.3,2.2,0.8,1.8c10.5-4.3,21.9-7.5,33.4-5.6
	C41.7,157.8,41.8,155.8,40.6,155.6z"/>
</svg>
